<?xml version="1.0" encoding="UTF-8" standalone="no"?>
<svg
   width="72"
   height="12"
   viewBox="0 0 72 12"
   fill="none"
   version="1.1"
   id="svg10"
   sodipodi:docname="logo.svg"
   inkscape:version="1.3.2 (091e20e, 2023-11-25)"
   xmlns:inkscape="http://www.inkscape.org/namespaces/inkscape"
   xmlns:sodipodi="http://sodipodi.sourceforge.net/DTD/sodipodi-0.dtd"
   xmlns="http://www.w3.org/2000/svg"
   xmlns:svg="http://www.w3.org/2000/svg">
  <sodipodi:namedview
     id="namedview10"
     pagecolor="#ffffff"
     bordercolor="#000000"
     borderopacity="0.25"
     inkscape:showpageshadow="2"
     inkscape:pageopacity="0.0"
     inkscape:pagecheckerboard="0"
     inkscape:deskcolor="#d1d1d1"
     inkscape:zoom="6.1805556"
     inkscape:cx="35.919101"
     inkscape:cy="6.0674157"
     inkscape:window-width="1512"
     inkscape:window-height="916"
     inkscape:window-x="0"
     inkscape:window-y="38"
     inkscape:window-maximized="1"
     inkscape:current-layer="svg10" />
  <path
     d="M65.5952 9.17375C65.3343 9.17375 65.1708 8.9387 65.2551 8.68483L65.9015 6.7386C65.9242 6.6703 65.9295 6.59983 65.917 6.53375L65.1597 2.53769C65.1092 2.27129 65.3481 1.99756 65.6311 1.99756H66.9666C67.1555 1.99756 67.303 2.12355 67.3258 2.30441L67.4885 3.59338C67.5663 4.10111 67.5769 4.65977 67.5781 4.74616C67.5782 4.75298 67.5834 4.75763 67.5904 4.75763V4.75763C67.5954 4.75763 67.6004 4.75497 67.6035 4.75065C67.6535 4.68151 68.0669 4.11098 68.4817 3.59338L69.6005 2.1856C69.6937 2.06835 69.8351 1.99756 69.9762 1.99756H71.2007C71.5374 1.99756 71.6819 2.37285 71.4505 2.64599L68.0637 6.64261C68.0233 6.69018 67.9927 6.74426 67.9736 6.80129L67.2924 8.83929C67.2275 9.03341 67.0363 9.17375 66.8367 9.17375H65.5952Z"
     fill="#E5EAF3"
     id="path1"
     style="fill:#333333" />
  <path
     d="M61.9937 9.17375C61.7864 9.17375 61.6319 9.02265 61.6314 8.81939L61.6306 8.46423C61.6301 8.26096 61.4756 8.10987 61.2683 8.10987H59.4646C59.307 8.10987 59.1505 8.19806 59.0604 8.33767L58.6678 8.94595C58.5777 9.08556 58.4212 9.17375 58.2635 9.17375H57.1128C56.7971 9.17375 56.6433 8.83931 56.8328 8.5647L61.2153 2.21271C61.3068 2.0801 61.4587 1.99756 61.6111 1.99756H63.1357C63.3364 1.99756 63.4885 2.1394 63.4975 2.33484L63.789 8.68683C63.8006 8.94012 63.5714 9.17375 63.3113 9.17375H61.9937ZM61.0689 5.24943L60.5252 6.08724C60.3473 6.36131 60.503 6.68467 60.8129 6.68467H61.1489C61.4017 6.68467 61.6272 6.46337 61.627 6.21548L61.6263 5.24943C61.6251 4.92736 61.65 4.41969 61.6542 4.33747C61.6545 4.33082 61.6496 4.32606 61.6429 4.32606V4.32606C61.6378 4.32606 61.6328 4.32883 61.6301 4.33342C61.5893 4.4012 61.2758 4.92151 61.0689 5.24943Z"
     fill="#E5EAF3"
     id="path2"
     style="fill:#333333" />
  <path
     d="M51.3088 9.17375C51.0473 9.17375 50.8838 8.93778 50.9691 8.68355L53.0998 2.33156C53.1648 2.13766 53.3559 1.99756 53.5553 1.99756H54.7954C55.0569 1.99756 55.2204 2.23361 55.1351 2.48788L53.6514 6.90695C53.566 7.16122 53.7295 7.39727 53.9911 7.39727H55.9831C56.2444 7.39727 56.4079 7.63298 56.3229 7.88711L56.0044 8.83939C55.9395 9.03346 55.7483 9.17375 55.5487 9.17375H51.3088Z"
     fill="#E5EAF3"
     id="path3"
     style="fill:#333333" />
  <path
     d="M44.3931 9.17375C44.1316 9.17375 43.9681 8.93778 44.0533 8.68355L46.1841 2.33156C46.2491 2.13766 46.4402 1.99756 46.6396 1.99756H49.2049C50.2692 1.99756 50.8637 2.23844 51.22 2.65998C51.5327 3.03133 51.7026 3.55324 51.6066 4.23573C51.3683 5.93192 50.0256 6.97573 48.404 6.97573H47.0553C46.8557 6.97573 46.6645 7.11608 46.5996 7.31021L46.0886 8.83927C46.0237 9.0334 45.8325 9.17375 45.6328 9.17375H44.3931ZM48.1515 3.71382C47.9522 3.71382 47.7613 3.85373 47.6961 4.04746L47.4163 4.8793C47.3307 5.13364 47.4942 5.36987 47.7559 5.36987H48.3965C48.9236 5.36987 49.4161 5.03866 49.5049 4.40635C49.5712 3.93463 49.3387 3.71382 48.832 3.71382H48.1515Z"
     fill="#E5EAF3"
     id="path4"
     style="fill:#333333" />
  <path
     d="M41.1981 9.17375C41.0338 9.17375 40.8983 9.07795 40.8523 8.92926L40.2137 6.86295C40.1337 6.60392 39.8035 6.53604 39.5674 6.73007L39.4162 6.85438C39.344 6.91369 39.2898 6.99142 39.2612 7.07651L38.6684 8.84001C38.6033 9.03379 38.4123 9.17375 38.213 9.17375H36.9725C36.7111 9.17375 36.5475 8.93778 36.6328 8.68355L38.7636 2.33156C38.8286 2.13766 39.0197 1.99756 39.2191 1.99756H40.4591C40.7206 1.99756 40.8842 2.23364 40.7988 2.48792L40.5726 3.16131C40.44 3.55611 40.8847 3.81533 41.2167 3.53678L42.9144 2.11245C43.0023 2.03873 43.1113 1.99756 43.2188 1.99756H44.4154C44.7934 1.99756 44.9112 2.45638 44.5986 2.71137L42.1053 4.74511C41.9567 4.86637 41.8917 5.05761 41.9442 5.21929L43.0387 8.58918C43.1274 8.86222 42.8822 9.17375 42.5786 9.17375H41.1981Z"
     fill="#E5EAF3"
     id="path5"
     style="fill:#333333" />
  <path
     d="M33.9942 9.17375C33.7869 9.17375 33.6324 9.02265 33.632 8.81939L33.6311 8.46423C33.6307 8.26096 33.4762 8.10987 33.2689 8.10987H31.4652C31.3075 8.10987 31.151 8.19806 31.0609 8.33767L30.6683 8.94595C30.5782 9.08556 30.4217 9.17375 30.2641 9.17375H29.1133C28.7976 9.17375 28.6439 8.83931 28.8334 8.5647L33.2159 2.21271C33.3074 2.0801 33.4592 1.99756 33.6117 1.99756H35.1362C35.3369 1.99756 35.4891 2.1394 35.4981 2.33484L35.7895 8.68683C35.8012 8.94012 35.572 9.17375 35.3119 9.17375H33.9942ZM33.0695 5.24943L32.5257 6.08724C32.3479 6.36131 32.5036 6.68467 32.8135 6.68467H33.1495C33.4022 6.68467 33.6277 6.46337 33.6276 6.21548L33.6269 5.24943C33.6257 4.92736 33.6506 4.41969 33.6547 4.33747C33.6551 4.33082 33.6501 4.32606 33.6434 4.32606V4.32606C33.6383 4.32606 33.6334 4.32883 33.6306 4.33342C33.5898 4.40119 33.2764 4.92151 33.0695 5.24943Z"
     fill="#E5EAF3"
     id="path6"
     style="fill:#333333" />
  <path
     d="M22.7748 9.17375C22.5134 9.17375 22.3498 8.93778 22.4351 8.68355L24.5659 2.33156C24.6309 2.13766 24.822 1.99756 25.0214 1.99756H29.6451C29.9071 1.99756 30.0707 2.23448 29.9844 2.48909L29.6922 3.35104C29.6267 3.54432 29.4361 3.68371 29.2371 3.68371H26.5423C26.3409 3.68371 26.1483 3.82653 26.085 4.02281L26.0272 4.20227C25.9457 4.45502 26.1092 4.68738 26.3686 4.68738H28.2043C28.4659 4.68738 28.6294 4.92349 28.5439 5.17779L28.2982 5.90926C28.2331 6.10307 28.042 6.24305 27.8427 6.24305H25.6821C25.4824 6.24305 25.2911 6.38351 25.2263 6.57772L25.1162 6.90773C25.0314 7.16177 25.1949 7.39727 25.4561 7.39727H27.9762C28.2375 7.39727 28.401 7.63298 28.316 7.88711L27.9975 8.83939C27.9326 9.03346 27.7414 9.17375 27.5418 9.17375H22.7748Z"
     fill="#E5EAF3"
     id="path7"
     style="fill:#333333" />
  <path
     d="M15.8591 9.17375C15.5977 9.17375 15.4341 8.93778 15.5194 8.68355L17.6502 2.33156C17.7152 2.13766 17.9063 1.99756 18.1057 1.99756H20.671C21.7352 1.99756 22.3297 2.23844 22.6861 2.65998C22.9987 3.03133 23.1686 3.55324 23.0727 4.23573C22.8343 5.93192 21.4917 6.97573 19.87 6.97573H18.5214C18.3218 6.97573 18.1305 7.11608 18.0656 7.31021L17.5546 8.83927C17.4897 9.0334 17.2985 9.17375 17.0989 9.17375H15.8591ZM19.6176 3.71382C19.4183 3.71382 19.2273 3.85373 19.1622 4.04746L18.8823 4.8793C18.7968 5.13364 18.9603 5.36987 19.2219 5.36987H19.8626C20.3896 5.36987 20.8821 5.03866 20.971 4.40635C21.0373 3.93463 20.8048 3.71382 20.298 3.71382H19.6176Z"
     fill="#E5EAF3"
     id="path8"
     style="fill:#333333" />
  <g
     clip-path="url(#clip0_3523_9151)"
     id="g9">
    <path
       d="M7.00857 2.71668e-05C8.38481 2.71668e-05 9.76207 2.71668e-05 11.1383 2.71668e-05C11.1837 2.71668e-05 11.2281 2.71668e-05 11.2735 0.00111924C11.3654 0.00439545 11.4098 0.0469862 11.3768 0.148549C11.3004 0.382252 11.225 0.615955 11.1455 0.848566C11.0392 1.1609 10.9297 1.47323 10.8213 1.78447C10.7212 2.07387 10.618 2.36217 10.5188 2.65267C10.429 2.91585 10.3382 3.17795 10.2566 3.44442C10.2483 3.47281 10.2865 3.53833 10.3185 3.55471C10.3598 3.57546 10.4156 3.56564 10.4652 3.56564C11.5027 3.56564 12.5414 3.56564 13.579 3.56564C13.8009 3.56564 13.8247 3.61915 13.7349 3.84084C13.6502 4.05051 13.5841 4.26784 13.5108 4.48297C13.4066 4.78657 13.3043 5.09017 13.2001 5.39376C13.0958 5.69736 12.9925 6.00095 12.8872 6.30346C12.7499 6.69988 12.6095 7.09411 12.4722 7.49054C12.369 7.78867 12.2719 8.08899 12.1676 8.38713C12.0902 8.60991 12.0076 8.82941 11.926 9.0511C11.8961 9.13192 11.8414 9.1614 11.7578 9.1614C10.2452 9.15922 8.73377 9.16031 7.22126 9.15922C7.08498 9.15922 7.04471 9.09588 7.09323 8.95718C7.25636 8.48978 7.42361 8.02347 7.58777 7.55715C7.61874 7.46869 7.64662 7.37805 7.67552 7.2885C7.70753 7.18585 7.77774 7.15745 7.87478 7.15855C8.27227 7.16182 8.66872 7.15855 9.06621 7.15855C9.50396 7.15855 9.94171 7.15855 10.3795 7.15855C10.5705 7.15855 10.5983 7.12688 10.6603 6.94232C10.7904 6.55354 10.9267 6.16695 11.066 5.78145C11.1238 5.622 11.0991 5.56958 10.939 5.56958C9.46266 5.56958 7.98732 5.56958 6.51094 5.5674C6.39531 5.5674 6.33233 5.6231 6.29723 5.72466C6.19399 6.02279 6.09487 6.32311 5.99266 6.62234C5.86258 7.00238 5.73043 7.38133 5.60034 7.76028C5.46819 8.14359 5.33604 8.528 5.20389 8.91132C5.06451 9.31211 4.92306 9.7129 4.78472 10.1137C4.68457 10.4042 4.58752 10.6947 4.48944 10.9852C4.45434 11.0878 4.4306 11.197 4.38001 11.2909C4.3542 11.3379 4.28193 11.3827 4.2303 11.3838C3.6573 11.3903 3.08431 11.3881 2.51027 11.387C2.40393 11.387 2.3647 11.3434 2.40703 11.2243C2.58977 10.7089 2.76735 10.1912 2.94389 9.67249C3.10392 9.2029 3.25672 8.73113 3.41778 8.26263C3.55406 7.86512 3.6986 7.47088 3.83488 7.07336C3.97116 6.67585 4.09918 6.27506 4.23547 5.87755C4.36762 5.49423 4.50803 5.1131 4.64018 4.72978C4.74549 4.42619 4.8477 4.12259 4.94371 3.81572C5.01082 3.59949 5.04386 3.56564 5.25551 3.56564C6.16714 3.56564 7.07878 3.56345 7.99042 3.56782C8.13392 3.56782 8.21652 3.53397 8.26711 3.37125C8.38997 2.97483 8.53967 2.58714 8.67492 2.19509C8.73273 2.02909 8.70589 1.99305 8.53451 1.99305C7.09014 1.99305 5.64577 1.99305 4.2014 1.99305C3.95258 1.99305 3.94845 2.00288 3.86689 2.24642C3.6955 2.75641 3.51793 3.26313 3.34448 3.77204C3.18342 4.246 3.02752 4.72105 2.8644 5.195C2.70747 5.6504 2.54538 6.10251 2.38638 6.55682C2.25526 6.9314 2.12311 7.30488 2.00025 7.68165C1.96928 7.77557 1.91766 7.81379 1.833 7.81379C1.26 7.81488 0.687 7.81597 0.112969 7.81379C0.00456345 7.81379 -0.0191825 7.74062 0.00972561 7.64889C0.0788985 7.42829 0.154266 7.20878 0.229633 6.99037C0.337006 6.67804 0.445412 6.3657 0.553817 6.05446C0.69113 5.66241 0.830508 5.27145 0.966789 4.8794C1.069 4.58454 1.16398 4.28749 1.26516 3.99373C1.40351 3.59294 1.54805 3.19324 1.68639 2.79136C1.78654 2.50087 1.87946 2.20819 1.9796 1.9177C2.11795 1.51582 2.26043 1.11612 2.40084 0.715333C2.46898 0.51876 2.54021 0.32328 2.60009 0.124523C2.63004 0.0306051 2.68372 -0.0010649 2.77045 2.71668e-05C2.86543 0.00221131 2.96041 2.71668e-05 3.05436 2.71668e-05C4.37278 2.71668e-05 5.69016 2.71668e-05 7.00857 2.71668e-05Z"
       fill="url(#paint0_linear_3523_9151)"
       id="path9" />
  </g>
  <defs
     id="defs10">
    <linearGradient
       id="paint0_linear_3523_9151"
       x1="13.7186"
       y1="0.0538794"
       x2="2.58788"
       y2="13.5275"
       gradientUnits="userSpaceOnUse">
      <stop
         offset="0.05"
         stop-color="#409EFF"
         id="stop9" />
      <stop
         offset="1"
         stop-color="#0000FF"
         id="stop10" />
    </linearGradient>
    <clipPath
       id="clip0_3523_9151">
      <rect
         width="13.783"
         height="11.3859"
         fill="white"
         id="rect10" />
    </clipPath>
  </defs>
</svg>
